{"title":"Jab Tak Hai Jaan 2012 DVDRip x264 ACC - alrmothe","uid":8017563,"size":1909618506,"categoryP":"video","categoryS":"movies","magnet":"?xt=urn:btih:b36198ea4a9ed0588c4da67c0bed1cb0df92d677&amp;dn=Jab+Tak+Hai+Jaan+2012+DVDRip+x264+ACC+-+alrmothe&amp;tr=udp%3A%2F%2Ftracker.openbittorrent.com%3A80&amp;tr=udp%3A%2F%2Fopen.demonii.com%3A1337&amp;tr=udp%3A%2F%2Ftracker.coppersurfer.tk%3A6969&amp;tr=udp%3A%2F%2Fexodus.desync.com%3A6969","seeders":1,"leechers":0,"uploader":".alrmothe","files":30,"time":1358130488,"description":"********************************************************\n\n Jab Tak Hai Jaan 2012 DVDRip x264 ACC - alrmothe \n\n********************************************************\n\nTiTLE: Jab Tak Hai Jaan\nYEAR:2012\nGENRE : Drama | Romance \nimdb URL : http://www.imdb.com/title/tt2176013/\nSIZE : 1.77 GB\nFormat : mp4 \nOverall bit rate:1443 Kbps\nSub: vietnamese ,indonesian ,English , Arabic ,malay \n\nEncoded / Released By :alrmothe\n\n****************************\n\nVideo\nFormat : AVC\nFormat/Info : Advanced Video Codec\nFormat profile : &lt;a class=&quot;__cf_email__&quot; href=&quot;/cdn-cgi/l/email-protection&quot; data-cfemail=&quot;b8f0d1dfd0f8f48b9688&quot;&gt;[email&amp;#160;protected]&lt;/a&gt;&lt;script cf-hash='f9e31' type=&quot;text/javascript&quot;&gt;\n/* &lt;![CDATA[ */!function(){try{var t=&quot;currentScript&quot;in document?document.currentScript:function(){for(var t=document.getElementsByTagName(&quot;script&quot;),e=t.length;e--;)if(t[e].getAttribute(&quot;cf-hash&quot;))return t[e]}();if(t&amp;&amp;t.previousSibling){var e,r,n,i,c=t.previousSibling,a=c.getAttribute(&quot;data-cfemail&quot;);if(a){for(e=&quot;&quot;,r=parseInt(a.substr(0,2),16),n=2;a.length-n;n+=2)i=parseInt(a.substr(n,2),16)^r,e+=String.fromCharCode(i);e=document.createTextNode(e),c.parentNode.replaceChild(e,c)}}}catch(u){}}();/* ]]&gt; */&lt;/script&gt;\nRuntime: 2h 56min 1sec\nbit rate: 1820 Kbps\nWidth: 1245 pixels\nHeight: 360 pixels\nFrame rate: 23.976 fps\nBit depth : 8 bits\nBits/(Pixel*Frame) : 0.200\nStream size : 1.53 GiB (86%)\n\nAudio: Hindi\nFormat: ACC\nBit rate: 192 Kbps\nSampling rate: 48.0 KHz\nChannel(s): 2 channels\nStream size : 242 MiB (8%)\nLanguage : Hindi\n********************************************************\n\nScreenshots &lt;a href=&quot;\nhttp://img443.imageshack.us/img443/8531/vlcsnap2013011300h29m20.png&quot; rel=&quot;nofollow&quot; target=&quot;_NEW&quot;&gt;\nhttp://img443.imageshack.us/img443/8531/vlcsnap2013011300h29m20.png&lt;/a&gt; &lt;a href=&quot;\nhttp://img163.imageshack.us/img163/2396/vlcsnap2013011300h31m46.png&quot; rel=&quot;nofollow&quot; target=&quot;_NEW&quot;&gt;\nhttp://img163.imageshack.us/img163/2396/vlcsnap2013011300h31m46.png&lt;/a&gt; &lt;a href=&quot;\nhttp://img407.imageshack.us/img407/5346/jabtakhaijaan2012.png&quot; rel=&quot;nofollow&quot; target=&quot;_NEW&quot;&gt;\nhttp://img407.imageshack.us/img407/5346/jabtakhaijaan2012.png&lt;/a&gt;\n","torrent":{"xt":"urn:btih:b36198ea4a9ed0588c4da67c0bed1cb0df92d677","amp;dn":"Jab+Tak+Hai+Jaan+2012+DVDRip+x264+ACC+-+alrmothe","amp;tr":["udp%3A%2F%2Ftracker.openbittorrent.com%3A80","udp%3A%2F%2Fopen.demonii.com%3A1337","udp%3A%2F%2Ftracker.coppersurfer.tk%3A6969","udp%3A%2F%2Fexodus.desync.com%3A6969"],"infoHash":"b36198ea4a9ed0588c4da67c0bed1cb0df92d677","infoHashBuffer":{"type":"Buffer","data":[179,97,152,234,74,158,208,88,140,77,166,124,11,237,28,176,223,146,214,119]},"announce":[],"urlList":[]}}